<svg width="512" height="512" viewBox="0 0 512 512" fill="none" xmlns="http://www.w3.org/2000/svg">
<g clip-path="url(#clip0_3137_202)">
<path fill-rule="evenodd" clip-rule="evenodd" d="M91 0C40.7421 0 0 40.7421 0 91V421C0 471.258 40.7421 512 91 512H421C471.258 512 512 471.258 512 421V91C512 40.7421 471.258 0 421 0H91ZM322.999 120.57C322.999 149.911 304.249 174.872 278.078 184.127V401.42C301.102 397.017 322.504 385.907 339.461 369.244C350.108 358.782 358.598 346.529 364.631 333.18L347 315.417L436 216L432.254 291.035C429.359 312.308 426.35 327.957 421.528 340.234C412.799 365.942 398.135 389.511 378.416 408.887C345.626 441.108 301.487 459.152 255.516 459.129C209.545 459.106 165.424 441.018 132.666 408.764C104.307 380.842 86.4307 344.239 81.6636 305.088C80.9921 300.834 80.3452 296.322 79.7039 291.525L76 216L164 316.066L146.811 333.696C152.813 346.809 161.19 358.851 171.661 369.16C188.486 385.726 209.702 396.819 232.543 401.306V183.915C206.679 174.497 188.21 149.69 188.21 120.57C188.21 83.3493 218.384 53.1759 255.604 53.1759C292.825 53.1759 322.999 83.3493 322.999 120.57ZM255.604 147.528C240.716 147.528 228.647 135.458 228.647 120.57C228.647 105.682 240.716 93.6125 255.604 93.6125C270.493 93.6125 282.562 105.682 282.562 120.57C282.562 135.458 270.493 147.528 255.604 147.528Z"/>
</g>
<defs>
<clipPath id="clip0_3137_202">
<rect width="512" height="512"/>
</clipPath>
</defs>
</svg>
